<svg viewBox="-16 -32 880 192" width="880" height="192" xmlns="http://www.w3.org/2000/svg"><desc>Generated with https://github.com/Platane/snk</desc><style>:root{--cb:#1b1f230a;--cs:#39ff14;--ce:#0d1117;--c0:#0d1117;--c1:#1a1f35;--c2:#2d3561;--c3:#5b4d8f;--c4:#8b5fbf}.c{shape-rendering:geometricPrecision;fill:var(--ce);stroke-width:1px;stroke:var(--cb);animation:none 38900ms linear infinite;width:12px;height:12px}@keyframes c0{65.03%{fill:var(--c2)}65.05%,100%{fill:var(--ce)}}.c.c0{fill:var(--c2);animation-name:c0}@keyframes c1{4.87%{fill:var(--c1)}4.89%,100%{fill:var(--ce)}}.c.c1{fill:var(--c1);animation-name:c1}@keyframes c2{6.93%{fill:var(--c1)}6.95%,100%{fill:var(--ce)}}.c.c2{fill:var(--c1);animation-name:c2}@keyframes c3{41.12%{fill:var(--c1)}41.14%,100%{fill:var(--ce)}}.c.c3{fill:var(--c1);animation-name:c3}@keyframes c4{8.47%{fill:var(--c1)}8.49%,100%{fill:var(--ce)}}.c.c4{fill:var(--c1);animation-name:c4}@keyframes c5{9.24%{fill:var(--c1)}9.26%,100%{fill:var(--ce)}}.c.c5{fill:var(--c1);animation-name:c5}@keyframes c6{14.13%{fill:var(--c1)}14.15%,100%{fill:var(--ce)}}.c.c6{fill:var(--c1);animation-name:c6}@keyframes c7{48.32%{fill:var(--c2)}48.34%,100%{fill:var(--ce)}}.c.c7{fill:var(--c2);animation-name:c7}@keyframes c8{12.59%{fill:var(--c1)}12.61%,100%{fill:var(--ce)}}.c.c8{fill:var(--c1);animation-name:c8}@keyframes c9{10.79%{fill:var(--c1)}10.81%,100%{fill:var(--ce)}}.c.c9{fill:var(--c1);animation-name:c9}@keyframes ca{14.9%{fill:var(--c1)}14.92%,100%{fill:var(--ce)}}.c.ca{fill:var(--c1);animation-name:ca}@keyframes cb{47.03%{fill:var(--c2)}47.05%,100%{fill:var(--ce)}}.c.cb{fill:var(--c2);animation-name:cb}@keyframes cc{12.84%{fill:var(--c1)}12.86%,100%{fill:var(--ce)}}.c.cc{fill:var(--c1);animation-name:cc}@keyframes cd{11.04%{fill:var(--c1)}11.06%,100%{fill:var(--ce)}}.c.cd{fill:var(--c1);animation-name:cd}@keyframes ce{11.3%{fill:var(--c1)}11.32%,100%{fill:var(--ce)}}.c.ce{fill:var(--c1);animation-name:ce}@keyframes cf{15.16%{fill:var(--c1)}15.18%,100%{fill:var(--ce)}}.c.cf{fill:var(--c1);animation-name:cf}@keyframes cg{45.75%{fill:var(--c2)}45.77%,100%{fill:var(--ce)}}.c.cg{fill:var(--c2);animation-name:cg}@keyframes ch{45.49%{fill:var(--c2)}45.51%,100%{fill:var(--ce)}}.c.ch{fill:var(--c2);animation-name:ch}@keyframes ci{45.23%{fill:var(--c1)}45.25%,100%{fill:var(--ce)}}.c.ci{fill:var(--c1);animation-name:ci}@keyframes cj{71.71%{fill:var(--c3)}71.73%,100%{fill:var(--ce)}}.c.cj{fill:var(--c3);animation-name:cj}@keyframes ck{71.46%{fill:var(--c3)}71.48%,100%{fill:var(--ce)}}.c.ck{fill:var(--c3);animation-name:ck}@keyframes cl{49.6%{fill:var(--c2)}49.62%,100%{fill:var(--ce)}}.c.cl{fill:var(--c2);animation-name:cl}@keyframes cm{46.26%{fill:var(--c2)}46.28%,100%{fill:var(--ce)}}.c.cm{fill:var(--c2);animation-name:cm}@keyframes cn{46.01%{fill:var(--c2)}46.03%,100%{fill:var(--ce)}}.c.cn{fill:var(--c2);animation-name:cn}@keyframes co{84.82%{fill:var(--c4)}84.84%,100%{fill:var(--ce)}}.c.co{fill:var(--c4);animation-name:co}@keyframes cp{72.23%{fill:var(--c3)}72.25%,100%{fill:var(--ce)}}.c.cp{fill:var(--c3);animation-name:cp}@keyframes cq{71.97%{fill:var(--c3)}71.99%,100%{fill:var(--ce)}}.c.cq{fill:var(--c3);animation-name:cq}@keyframes cr{84.05%{fill:var(--c4)}84.07%,100%{fill:var(--ce)}}.c.cr{fill:var(--c4);animation-name:cr}@keyframes cs{83.79%{fill:var(--c4)}83.81%,100%{fill:var(--ce)}}.c.cs{fill:var(--c4);animation-name:cs}@keyframes ct{73.25%{fill:var(--c3)}73.27%,100%{fill:var(--ce)}}.c.ct{fill:var(--c3);animation-name:ct}@keyframes cu{26.47%{fill:var(--c1)}26.49%,100%{fill:var(--ce)}}.c.cu{fill:var(--c1);animation-name:cu}@keyframes cv{26.73%{fill:var(--c1)}26.75%,100%{fill:var(--ce)}}.c.cv{fill:var(--c1);animation-name:cv}@keyframes cw{27.5%{fill:var(--c1)}27.52%,100%{fill:var(--ce)}}.c.cw{fill:var(--c1);animation-name:cw}@keyframes cx{16.7%{fill:var(--c1)}16.72%,100%{fill:var(--ce)}}.c.cx{fill:var(--c1);animation-name:cx}@keyframes cy{74.03%{fill:var(--c3)}74.05%,100%{fill:var(--ce)}}.c.cy{fill:var(--c3);animation-name:cy}@keyframes cz{17.21%{fill:var(--c1)}17.23%,100%{fill:var(--ce)}}.c.cz{fill:var(--c1);animation-name:cz}@keyframes c10{17.47%{fill:var(--c1)}17.49%,100%{fill:var(--ce)}}.c.c10{fill:var(--c1);animation-name:c10}@keyframes c11{28.27%{fill:var(--c1)}28.29%,100%{fill:var(--ce)}}.c.c11{fill:var(--c1);animation-name:c11}@keyframes c12{17.98%{fill:var(--c1)}18%,100%{fill:var(--ce)}}.c.c12{fill:var(--c1);animation-name:c12}@keyframes c13{51.92%{fill:var(--c2)}51.94%,100%{fill:var(--ce)}}.c.c13{fill:var(--c2);animation-name:c13}@keyframes c14{52.18%{fill:var(--c2)}52.2%,100%{fill:var(--ce)}}.c.c14{fill:var(--c2);animation-name:c14}@keyframes c15{82.25%{fill:var(--c4)}82.27%,100%{fill:var(--ce)}}.c.c15{fill:var(--c4);animation-name:c15}@keyframes c16{18.76%{fill:var(--c1)}18.78%,100%{fill:var(--ce)}}.c.c16{fill:var(--c1);animation-name:c16}@keyframes c17{19.01%{fill:var(--c1)}19.03%,100%{fill:var(--ce)}}.c.c17{fill:var(--c1);animation-name:c17}@keyframes c18{52.69%{fill:var(--c2)}52.71%,100%{fill:var(--ce)}}.c.c18{fill:var(--c2);animation-name:c18}@keyframes c19{55%{fill:var(--c2)}55.02%,100%{fill:var(--ce)}}.c.c19{fill:var(--c2);animation-name:c19}@keyframes c1a{54.75%{fill:var(--c2)}54.77%,100%{fill:var(--ce)}}.c.c1a{fill:var(--c2);animation-name:c1a}@keyframes c1b{80.45%{fill:var(--c4)}80.47%,100%{fill:var(--ce)}}.c.c1b{fill:var(--c4);animation-name:c1b}@keyframes c1c{24.41%{fill:var(--c1)}24.43%,100%{fill:var(--ce)}}.c.c1c{fill:var(--c1);animation-name:c1c}@keyframes c1d{81.48%{fill:var(--c4)}81.5%,100%{fill:var(--ce)}}.c.c1d{fill:var(--c4);animation-name:c1d}@keyframes c1e{87.91%{fill:var(--c4)}87.93%,100%{fill:var(--ce)}}.c.c1e{fill:var(--c4);animation-name:c1e}@keyframes c1f{23.38%{fill:var(--c1)}23.4%,100%{fill:var(--ce)}}.c.c1f{fill:var(--c1);animation-name:c1f}@keyframes c1g{20.3%{fill:var(--c1)}20.32%,100%{fill:var(--ce)}}.c.c1g{fill:var(--c1);animation-name:c1g}@keyframes c1h{22.87%{fill:var(--c1)}22.89%,100%{fill:var(--ce)}}.c.c1h{fill:var(--c1);animation-name:c1h}@keyframes c1i{20.56%{fill:var(--c1)}20.58%,100%{fill:var(--ce)}}.c.c1i{fill:var(--c1);animation-name:c1i}@keyframes c1j{22.61%{fill:var(--c1)}22.63%,100%{fill:var(--ce)}}.c.c1j{fill:var(--c1);animation-name:c1j}@keyframes c1k{22.36%{fill:var(--c1)}22.38%,100%{fill:var(--ce)}}.c.c1k{fill:var(--c1);animation-name:c1k}@keyframes c1l{21.84%{fill:var(--c1)}21.86%,100%{fill:var(--ce)}}.c.c1l{fill:var(--c1);animation-name:c1l}@keyframes c1m{21.58%{fill:var(--c1)}21.6%,100%{fill:var(--ce)}}.c.c1m{fill:var(--c1);animation-name:c1m}@keyframes c1n{21.07%{fill:var(--c1)}21.09%,100%{fill:var(--ce)}}.c.c1n{fill:var(--c1);animation-name:c1n}@keyframes c1o{32.89%{fill:var(--c1)}32.91%,100%{fill:var(--ce)}}.c.c1o{fill:var(--c1);animation-name:c1o}@keyframes c1p{77.88%{fill:var(--c3)}77.9%,100%{fill:var(--ce)}}.c.c1p{fill:var(--c3);animation-name:c1p}@keyframes c1q{78.14%{fill:var(--c4)}78.16%,100%{fill:var(--ce)}}.c.c1q{fill:var(--c4);animation-name:c1q}.u{transform-origin:0 0;transform:scale(0,1);animation:none linear 38900ms infinite}@keyframes u0{4.87%{transform:scale(0.000,1)}4.89%,6.93%{transform:scale(0.029,1)}6.95%,8.47%{transform:scale(0.057,1)}8.49%,9.24%{transform:scale(0.086,1)}9.26%,10.79%{transform:scale(0.114,1)}10.81%,11.04%{transform:scale(0.143,1)}11.06%,11.3%{transform:scale(0.171,1)}11.32%,12.59%{transform:scale(0.200,1)}12.61%,12.84%{transform:scale(0.229,1)}12.86%,14.13%{transform:scale(0.257,1)}14.15%,14.9%{transform:scale(0.286,1)}14.92%,15.16%{transform:scale(0.314,1)}15.18%,16.7%{transform:scale(0.343,1)}16.72%,17.21%{transform:scale(0.371,1)}17.23%,17.47%{transform:scale(0.400,1)}17.49%,17.98%{transform:scale(0.429,1)}18%,18.76%{transform:scale(0.457,1)}18.78%,19.01%{transform:scale(0.486,1)}19.03%,20.3%{transform:scale(0.514,1)}20.32%,20.56%{transform:scale(0.543,1)}20.58%,21.07%{transform:scale(0.571,1)}21.09%,21.58%{transform:scale(0.600,1)}21.6%,21.84%{transform:scale(0.629,1)}21.86%,22.36%{transform:scale(0.657,1)}22.38%,22.61%{transform:scale(0.686,1)}22.63%,22.87%{transform:scale(0.714,1)}22.89%,23.38%{transform:scale(0.743,1)}23.4%,24.41%{transform:scale(0.771,1)}24.43%,26.47%{transform:scale(0.800,1)}26.49%,26.73%{transform:scale(0.829,1)}26.75%,27.5%{transform:scale(0.857,1)}27.52%,28.27%{transform:scale(0.886,1)}28.29%,32.89%{transform:scale(0.914,1)}32.91%,41.12%{transform:scale(0.943,1)}41.14%,45.23%{transform:scale(0.971,1)}45.25%,100%{transform:scale(1.000,1)}}.u.u0{fill:var(--c1);animation-name:u0;transform-origin:0.0px 0}@keyframes u1{45.49%{transform:scale(0.000,1)}45.51%,45.75%{transform:scale(0.077,1)}45.77%,46.01%{transform:scale(0.154,1)}46.03%,46.26%{transform:scale(0.231,1)}46.28%,47.03%{transform:scale(0.308,1)}47.05%,48.32%{transform:scale(0.385,1)}48.34%,49.6%{transform:scale(0.462,1)}49.62%,51.92%{transform:scale(0.538,1)}51.94%,52.18%{transform:scale(0.615,1)}52.2%,52.69%{transform:scale(0.692,1)}52.71%,54.75%{transform:scale(0.769,1)}54.77%,55%{transform:scale(0.846,1)}55.02%,65.03%{transform:scale(0.923,1)}65.05%,100%{transform:scale(1.000,1)}}.u.u1{fill:var(--c2);animation-name:u1;transform-origin:471.1px 0}@keyframes u2{71.46%{transform:scale(0.000,1)}71.48%,71.71%{transform:scale(0.143,1)}71.73%,71.97%{transform:scale(0.286,1)}71.99%,72.23%{transform:scale(0.429,1)}72.25%,73.25%{transform:scale(0.571,1)}73.27%,74.03%{transform:scale(0.714,1)}74.05%,77.88%{transform:scale(0.857,1)}77.9%,100%{transform:scale(1.000,1)}}.u.u2{fill:var(--c3);animation-name:u2;transform-origin:646.1px 0}@keyframes u3{78.14%{transform:scale(0.000,1)}78.16%,80.45%{transform:scale(0.125,1)}80.47%,81.48%{transform:scale(0.250,1)}81.5%,82.25%{transform:scale(0.375,1)}82.27%,83.79%{transform:scale(0.500,1)}83.81%,84.05%{transform:scale(0.625,1)}84.07%,84.82%{transform:scale(0.750,1)}84.84%,87.91%{transform:scale(0.875,1)}87.93%,100%{transform:scale(1.000,1)}}.u.u3{fill:var(--c4);animation-name:u3;transform-origin:740.3px 0}.s{shape-rendering:geometricPrecision;fill:var(--cs);animation:none linear 38900ms infinite}@keyframes s0{0%,99.74%{transform:translate(0px,-16px)}0.26%{transform:translate(0px,0px)}3.86%{transform:translate(224px,0px)}4.88%{transform:translate(224px,64px)}6.43%{transform:translate(320px,64px)}6.94%{transform:translate(320px,96px)}7.97%{transform:translate(384px,96px)}8.48%{transform:translate(384px,64px)}10.03%{transform:translate(480px,64px)}10.28%{transform:translate(480px,80px)}11.05%{transform:translate(528px,80px)}11.31%,49.36%{transform:translate(528px,96px)}11.57%{transform:translate(512px,96px)}12.6%{transform:translate(512px,32px)}12.85%{transform:translate(528px,32px)}13.11%{transform:translate(528px,48px)}13.37%{transform:translate(512px,48px)}13.88%{transform:translate(512px,16px)}14.14%,47.56%{transform:translate(496px,16px)}14.4%{transform:translate(496px,0px)}15.17%{transform:translate(544px,0px)}15.42%{transform:translate(544px,-16px)}16.2%{transform:translate(592px,-16px)}16.71%{transform:translate(592px,16px)}17.22%{transform:translate(624px,16px)}17.48%{transform:translate(624px,32px)}17.74%{transform:translate(640px,32px)}17.99%{transform:translate(640px,48px)}18.51%{transform:translate(672px,48px)}19.02%,52.44%{transform:translate(672px,80px)}21.08%{transform:translate(800px,80px)}22.11%{transform:translate(800px,16px)}22.37%{transform:translate(784px,16px)}22.62%{transform:translate(784px,0px)}23.14%{transform:translate(752px,0px)}23.39%{transform:translate(752px,16px)}24.16%,54.5%,75.58%{transform:translate(704px,16px)}24.42%{transform:translate(704px,32px)}26.48%{transform:translate(576px,32px)}27.51%{transform:translate(576px,96px)}28.28%{transform:translate(624px,96px)}28.79%{transform:translate(624px,64px)}31.62%,78.41%{transform:translate(800px,64px)}32.13%{transform:translate(800px,32px)}32.39%{transform:translate(816px,32px)}33.16%{transform:translate(816px,-16px)}40.87%{transform:translate(336px,-16px)}41.9%{transform:translate(336px,48px)}45.24%{transform:translate(544px,48px)}45.76%{transform:translate(544px,16px)}46.02%{transform:translate(560px,16px)}46.27%{transform:translate(560px,0px)}46.79%{transform:translate(528px,0px)}47.04%{transform:translate(528px,16px)}48.33%{transform:translate(496px,64px)}48.84%{transform:translate(528px,64px)}49.61%{transform:translate(544px,96px)}49.87%{transform:translate(544px,112px)}51.41%{transform:translate(640px,112px)}51.93%{transform:translate(640px,80px)}52.7%{transform:translate(672px,96px)}52.96%{transform:translate(688px,96px)}53.21%{transform:translate(688px,80px)}53.47%{transform:translate(704px,80px)}54.76%{transform:translate(688px,16px)}55.01%{transform:translate(688px,0px)}55.78%{transform:translate(640px,0px)}56.04%{transform:translate(640px,16px)}64.01%{transform:translate(144px,16px)}65.04%{transform:translate(144px,80px)}71.47%{transform:translate(544px,80px)}71.72%{transform:translate(544px,64px)}71.98%{transform:translate(560px,64px)}72.24%{transform:translate(560px,48px)}72.49%{transform:translate(576px,48px)}73.26%{transform:translate(576px,0px)}75.32%{transform:translate(704px,0px)}77.38%{transform:translate(816px,16px)}78.15%{transform:translate(816px,64px)}78.66%{transform:translate(800px,48px)}80.46%{transform:translate(688px,48px)}80.72%{transform:translate(688px,64px)}80.98%{transform:translate(704px,64px)}81.49%{transform:translate(704px,96px)}83.8%{transform:translate(560px,96px)}84.83%{transform:translate(560px,32px)}87.4%{transform:translate(720px,32px)}87.92%{transform:translate(720px,0px)}98.46%{transform:translate(64px,0px)}98.71%{transform:translate(64px,-16px)}}.s.s0{transform:translate(0px,-16px);animation-name:s0}@keyframes s1{0%,99.74%{transform:translate(16px,-16px)}0.26%{transform:translate(0px,-16px)}0.51%{transform:translate(0px,0px)}4.11%{transform:translate(224px,0px)}5.14%{transform:translate(224px,64px)}6.68%{transform:translate(320px,64px)}7.2%{transform:translate(320px,96px)}8.23%{transform:translate(384px,96px)}8.74%{transform:translate(384px,64px)}10.28%{transform:translate(480px,64px)}10.54%{transform:translate(480px,80px)}11.31%{transform:translate(528px,80px)}11.57%,49.61%{transform:translate(528px,96px)}11.83%{transform:translate(512px,96px)}12.85%{transform:translate(512px,32px)}13.11%{transform:translate(528px,32px)}13.37%{transform:translate(528px,48px)}13.62%{transform:translate(512px,48px)}14.14%{transform:translate(512px,16px)}14.4%,47.81%{transform:translate(496px,16px)}14.65%{transform:translate(496px,0px)}15.42%{transform:translate(544px,0px)}15.68%{transform:translate(544px,-16px)}16.45%{transform:translate(592px,-16px)}16.97%{transform:translate(592px,16px)}17.48%{transform:translate(624px,16px)}17.74%{transform:translate(624px,32px)}17.99%{transform:translate(640px,32px)}18.25%{transform:translate(640px,48px)}18.77%{transform:translate(672px,48px)}19.28%,52.7%{transform:translate(672px,80px)}21.34%{transform:translate(800px,80px)}22.37%{transform:translate(800px,16px)}22.62%{transform:translate(784px,16px)}22.88%{transform:translate(784px,0px)}23.39%{transform:translate(752px,0px)}23.65%{transform:translate(752px,16px)}24.42%,54.76%,75.84%{transform:translate(704px,16px)}24.68%{transform:translate(704px,32px)}26.74%{transform:translate(576px,32px)}27.76%{transform:translate(576px,96px)}28.53%{transform:translate(624px,96px)}29.05%{transform:translate(624px,64px)}31.88%,78.66%{transform:translate(800px,64px)}32.39%{transform:translate(800px,32px)}32.65%{transform:translate(816px,32px)}33.42%{transform:translate(816px,-16px)}41.13%{transform:translate(336px,-16px)}42.16%{transform:translate(336px,48px)}45.5%{transform:translate(544px,48px)}46.02%{transform:translate(544px,16px)}46.27%{transform:translate(560px,16px)}46.53%{transform:translate(560px,0px)}47.04%{transform:translate(528px,0px)}47.3%{transform:translate(528px,16px)}48.59%{transform:translate(496px,64px)}49.1%{transform:translate(528px,64px)}49.87%{transform:translate(544px,96px)}50.13%{transform:translate(544px,112px)}51.67%{transform:translate(640px,112px)}52.19%{transform:translate(640px,80px)}52.96%{transform:translate(672px,96px)}53.21%{transform:translate(688px,96px)}53.47%{transform:translate(688px,80px)}53.73%{transform:translate(704px,80px)}55.01%{transform:translate(688px,16px)}55.27%{transform:translate(688px,0px)}56.04%{transform:translate(640px,0px)}56.3%{transform:translate(640px,16px)}64.27%{transform:translate(144px,16px)}65.3%{transform:translate(144px,80px)}71.72%{transform:translate(544px,80px)}71.98%{transform:translate(544px,64px)}72.24%{transform:translate(560px,64px)}72.49%{transform:translate(560px,48px)}72.75%{transform:translate(576px,48px)}73.52%{transform:translate(576px,0px)}75.58%{transform:translate(704px,0px)}77.63%{transform:translate(816px,16px)}78.41%{transform:translate(816px,64px)}78.92%{transform:translate(800px,48px)}80.72%{transform:translate(688px,48px)}80.98%{transform:translate(688px,64px)}81.23%{transform:translate(704px,64px)}81.75%{transform:translate(704px,96px)}84.06%{transform:translate(560px,96px)}85.09%{transform:translate(560px,32px)}87.66%{transform:translate(720px,32px)}88.17%{transform:translate(720px,0px)}98.71%{transform:translate(64px,0px)}98.97%{transform:translate(64px,-16px)}}.s.s1{transform:translate(16px,-16px);animation-name:s1}@keyframes s2{0%,99.74%{transform:translate(32px,-16px)}0.51%{transform:translate(0px,-16px)}0.77%{transform:translate(0px,0px)}4.37%{transform:translate(224px,0px)}5.4%{transform:translate(224px,64px)}6.94%{transform:translate(320px,64px)}7.46%{transform:translate(320px,96px)}8.48%{transform:translate(384px,96px)}9%{transform:translate(384px,64px)}10.54%{transform:translate(480px,64px)}10.8%{transform:translate(480px,80px)}11.57%{transform:translate(528px,80px)}11.83%,49.87%{transform:translate(528px,96px)}12.08%{transform:translate(512px,96px)}13.11%{transform:translate(512px,32px)}13.37%{transform:translate(528px,32px)}13.62%{transform:translate(528px,48px)}13.88%{transform:translate(512px,48px)}14.4%{transform:translate(512px,16px)}14.65%,48.07%{transform:translate(496px,16px)}14.91%{transform:translate(496px,0px)}15.68%{transform:translate(544px,0px)}15.94%{transform:translate(544px,-16px)}16.71%{transform:translate(592px,-16px)}17.22%{transform:translate(592px,16px)}17.74%{transform:translate(624px,16px)}17.99%{transform:translate(624px,32px)}18.25%{transform:translate(640px,32px)}18.51%{transform:translate(640px,48px)}19.02%{transform:translate(672px,48px)}19.54%,52.96%{transform:translate(672px,80px)}21.59%{transform:translate(800px,80px)}22.62%{transform:translate(800px,16px)}22.88%{transform:translate(784px,16px)}23.14%{transform:translate(784px,0px)}23.65%{transform:translate(752px,0px)}23.91%{transform:translate(752px,16px)}24.68%,55.01%,76.09%{transform:translate(704px,16px)}24.94%{transform:translate(704px,32px)}26.99%{transform:translate(576px,32px)}28.02%{transform:translate(576px,96px)}28.79%{transform:translate(624px,96px)}29.31%{transform:translate(624px,64px)}32.13%,78.92%{transform:translate(800px,64px)}32.65%{transform:translate(800px,32px)}32.9%{transform:translate(816px,32px)}33.68%{transform:translate(816px,-16px)}41.39%{transform:translate(336px,-16px)}42.42%{transform:translate(336px,48px)}45.76%{transform:translate(544px,48px)}46.27%{transform:translate(544px,16px)}46.53%{transform:translate(560px,16px)}46.79%{transform:translate(560px,0px)}47.3%{transform:translate(528px,0px)}47.56%{transform:translate(528px,16px)}48.84%{transform:translate(496px,64px)}49.36%{transform:translate(528px,64px)}50.13%{transform:translate(544px,96px)}50.39%{transform:translate(544px,112px)}51.93%{transform:translate(640px,112px)}52.44%{transform:translate(640px,80px)}53.21%{transform:translate(672px,96px)}53.47%{transform:translate(688px,96px)}53.73%{transform:translate(688px,80px)}53.98%{transform:translate(704px,80px)}55.27%{transform:translate(688px,16px)}55.53%{transform:translate(688px,0px)}56.3%{transform:translate(640px,0px)}56.56%{transform:translate(640px,16px)}64.52%{transform:translate(144px,16px)}65.55%{transform:translate(144px,80px)}71.98%{transform:translate(544px,80px)}72.24%{transform:translate(544px,64px)}72.49%{transform:translate(560px,64px)}72.75%{transform:translate(560px,48px)}73.01%{transform:translate(576px,48px)}73.78%{transform:translate(576px,0px)}75.84%{transform:translate(704px,0px)}77.89%{transform:translate(816px,16px)}78.66%{transform:translate(816px,64px)}79.18%{transform:translate(800px,48px)}80.98%{transform:translate(688px,48px)}81.23%{transform:translate(688px,64px)}81.49%{transform:translate(704px,64px)}82.01%{transform:translate(704px,96px)}84.32%{transform:translate(560px,96px)}85.35%{transform:translate(560px,32px)}87.92%{transform:translate(720px,32px)}88.43%{transform:translate(720px,0px)}98.97%{transform:translate(64px,0px)}99.23%{transform:translate(64px,-16px)}}.s.s2{transform:translate(32px,-16px);animation-name:s2}@keyframes s3{0%,99.74%{transform:translate(48px,-16px)}0.77%{transform:translate(0px,-16px)}1.03%{transform:translate(0px,0px)}4.63%{transform:translate(224px,0px)}5.66%{transform:translate(224px,64px)}7.2%{transform:translate(320px,64px)}7.71%{transform:translate(320px,96px)}8.74%{transform:translate(384px,96px)}9.25%{transform:translate(384px,64px)}10.8%{transform:translate(480px,64px)}11.05%{transform:translate(480px,80px)}11.83%{transform:translate(528px,80px)}12.08%,50.13%{transform:translate(528px,96px)}12.34%{transform:translate(512px,96px)}13.37%{transform:translate(512px,32px)}13.62%{transform:translate(528px,32px)}13.88%{transform:translate(528px,48px)}14.14%{transform:translate(512px,48px)}14.65%{transform:translate(512px,16px)}14.91%,48.33%{transform:translate(496px,16px)}15.17%{transform:translate(496px,0px)}15.94%{transform:translate(544px,0px)}16.2%{transform:translate(544px,-16px)}16.97%{transform:translate(592px,-16px)}17.48%{transform:translate(592px,16px)}17.99%{transform:translate(624px,16px)}18.25%{transform:translate(624px,32px)}18.51%{transform:translate(640px,32px)}18.77%{transform:translate(640px,48px)}19.28%{transform:translate(672px,48px)}19.79%,53.21%{transform:translate(672px,80px)}21.85%{transform:translate(800px,80px)}22.88%{transform:translate(800px,16px)}23.14%{transform:translate(784px,16px)}23.39%{transform:translate(784px,0px)}23.91%{transform:translate(752px,0px)}24.16%{transform:translate(752px,16px)}24.94%,55.27%,76.35%{transform:translate(704px,16px)}25.19%{transform:translate(704px,32px)}27.25%{transform:translate(576px,32px)}28.28%{transform:translate(576px,96px)}29.05%{transform:translate(624px,96px)}29.56%{transform:translate(624px,64px)}32.39%,79.18%{transform:translate(800px,64px)}32.9%{transform:translate(800px,32px)}33.16%{transform:translate(816px,32px)}33.93%{transform:translate(816px,-16px)}41.65%{transform:translate(336px,-16px)}42.67%{transform:translate(336px,48px)}46.02%{transform:translate(544px,48px)}46.53%{transform:translate(544px,16px)}46.79%{transform:translate(560px,16px)}47.04%{transform:translate(560px,0px)}47.56%{transform:translate(528px,0px)}47.81%{transform:translate(528px,16px)}49.1%{transform:translate(496px,64px)}49.61%{transform:translate(528px,64px)}50.39%{transform:translate(544px,96px)}50.64%{transform:translate(544px,112px)}52.19%{transform:translate(640px,112px)}52.7%{transform:translate(640px,80px)}53.47%{transform:translate(672px,96px)}53.73%{transform:translate(688px,96px)}53.98%{transform:translate(688px,80px)}54.24%{transform:translate(704px,80px)}55.53%{transform:translate(688px,16px)}55.78%{transform:translate(688px,0px)}56.56%{transform:translate(640px,0px)}56.81%{transform:translate(640px,16px)}64.78%{transform:translate(144px,16px)}65.81%{transform:translate(144px,80px)}72.24%{transform:translate(544px,80px)}72.49%{transform:translate(544px,64px)}72.75%{transform:translate(560px,64px)}73.01%{transform:translate(560px,48px)}73.26%{transform:translate(576px,48px)}74.04%{transform:translate(576px,0px)}76.09%{transform:translate(704px,0px)}78.15%{transform:translate(816px,16px)}78.92%{transform:translate(816px,64px)}79.43%{transform:translate(800px,48px)}81.23%{transform:translate(688px,48px)}81.49%{transform:translate(688px,64px)}81.75%{transform:translate(704px,64px)}82.26%{transform:translate(704px,96px)}84.58%{transform:translate(560px,96px)}85.6%{transform:translate(560px,32px)}88.17%{transform:translate(720px,32px)}88.69%{transform:translate(720px,0px)}99.23%{transform:translate(64px,0px)}99.49%{transform:translate(64px,-16px)}}.s.s3{transform:translate(48px,-16px);animation-name:s3}</style><rect class="c" x="2" y="2" rx="2" ry="2"/><rect class="c" x="2" y="18" rx="2" ry="2"/><rect class="c" x="2" y="34" rx="2" ry="2"/><rect class="c" x="2" y="50" rx="2" ry="2"/><rect class="c" x="2" y="66" rx="2" ry="2"/><rect class="c" x="2" y="82" rx="2" ry="2"/><rect class="c" x="2" y="98" rx="2" ry="2"/><rect class="c" x="18" y="2" rx="2" ry="2"/><rect class="c" x="18" y="18" rx="2" ry="2"/><rect class="c" x="18" y="34" rx="2" ry="2"/><rect class="c" x="18" y="50" rx="2" ry="2"/><rect class="c" x="18" y="66" rx="2" ry="2"/><rect class="c" x="18" y="82" rx="2" ry="2"/><rect class="c" x="18" y="98" rx="2" ry="2"/><rect class="c" x="34" y="2" rx="2" ry="2"/><rect class="c" x="34" y="18" rx="2" ry="2"/><rect class="c" x="34" y="34" rx="2" ry="2"/><rect class="c" x="34" y="50" rx="2" ry="2"/><rect class="c" x="34" y="66" rx="2" ry="2"/><rect class="c" x="34" y="82" rx="2" ry="2"/><rect class="c" x="34" y="98" rx="2" ry="2"/><rect class="c" x="50" y="2" rx="2" ry="2"/><rect class="c" x="50" y="18" rx="2" ry="2"/><rect class="c" x="50" y="34" rx="2" ry="2"/><rect class="c" x="50" y="50" rx="2" ry="2"/><rect class="c" x="50" y="66" rx="2" ry="2"/><rect class="c" x="50" y="82" rx="2" ry="2"/><rect class="c" x="50" y="98" rx="2" ry="2"/><rect class="c" x="66" y="2" rx="2" ry="2"/><rect class="c" x="66" y="18" rx="2" ry="2"/><rect class="c" x="66" y="34" rx="2" ry="2"/><rect class="c" x="66" y="50" rx="2" ry="2"/><rect class="c" x="66" y="66" rx="2" ry="2"/><rect class="c" x="66" y="82" rx="2" ry="2"/><rect class="c" x="66" y="98" rx="2" ry="2"/><rect class="c" x="82" y="2" rx="2" ry="2"/><rect class="c" x="82" y="18" rx="2" ry="2"/><rect class="c" x="82" y="34" rx="2" ry="2"/><rect class="c" x="82" y="50" rx="2" ry="2"/><rect class="c" x="82" y="66" rx="2" ry="2"/><rect class="c" x="82" y="82" rx="2" ry="2"/><rect class="c" x="82" y="98" rx="2" ry="2"/><rect class="c" x="98" y="2" rx="2" ry="2"/><rect class="c" x="98" y="18" rx="2" ry="2"/><rect class="c" x="98" y="34" rx="2" ry="2"/><rect class="c" x="98" y="50" rx="2" ry="2"/><rect class="c" x="98" y="66" rx="2" ry="2"/><rect class="c" x="98" y="82" rx="2" ry="2"/><rect class="c" x="98" y="98" rx="2" ry="2"/><rect class="c" x="114" y="2" rx="2" ry="2"/><rect class="c" x="114" y="18" rx="2" ry="2"/><rect class="c" x="114" y="34" rx="2" ry="2"/><rect class="c" x="114" y="50" rx="2" ry="2"/><rect class="c" x="114" y="66" rx="2" ry="2"/><rect class="c" x="114" y="82" rx="2" ry="2"/><rect class="c" x="114" y="98" rx="2" ry="2"/><rect class="c" x="130" y="2" rx="2" ry="2"/><rect class="c" x="130" y="18" rx="2" ry="2"/><rect class="c" x="130" y="34" rx="2" ry="2"/><rect class="c" x="130" y="50" rx="2" ry="2"/><rect class="c" x="130" y="66" rx="2" ry="2"/><rect class="c" x="130" y="82" rx="2" ry="2"/><rect class="c" x="130" y="98" rx="2" ry="2"/><rect class="c" x="146" y="2" rx="2" ry="2"/><rect class="c" x="146" y="18" rx="2" ry="2"/><rect class="c" x="146" y="34" rx="2" ry="2"/><rect class="c" x="146" y="50" rx="2" ry="2"/><rect class="c" x="146" y="66" rx="2" ry="2"/><rect class="c c0" x="146" y="82" rx="2" ry="2"/><rect class="c" x="146" y="98" rx="2" ry="2"/><rect class="c" x="162" y="2" rx="2" ry="2"/><rect class="c" x="162" y="18" rx="2" ry="2"/><rect class="c" x="162" y="34" rx="2" ry="2"/><rect class="c" x="162" y="50" rx="2" ry="2"/><rect class="c" x="162" y="66" rx="2" ry="2"/><rect class="c" x="162" y="82" rx="2" ry="2"/><rect class="c" x="162" y="98" rx="2" ry="2"/><rect class="c" x="178" y="2" rx="2" ry="2"/><rect class="c" x="178" y="18" rx="2" ry="2"/><rect class="c" x="178" y="34" rx="2" ry="2"/><rect class="c" x="178" y="50" rx="2" ry="2"/><rect class="c" x="178" y="66" rx="2" ry="2"/><rect class="c" x="178" y="82" rx="2" ry="2"/><rect class="c" x="178" y="98" rx="2" ry="2"/><rect class="c" x="194" y="2" rx="2" ry="2"/><rect class="c" x="194" y="18" rx="2" ry="2"/><rect class="c" x="194" y="34" rx="2" ry="2"/><rect class="c" x="194" y="50" rx="2" ry="2"/><rect class="c" x="194" y="66" rx="2" ry="2"/><rect class="c" x="194" y="82" rx="2" ry="2"/><rect class="c" x="194" y="98" rx="2" ry="2"/><rect class="c" x="210" y="2" rx="2" ry="2"/><rect class="c" x="210" y="18" rx="2" ry="2"/><rect class="c" x="210" y="34" rx="2" ry="2"/><rect class="c" x="210" y="50" rx="2" ry="2"/><rect class="c" x="210" y="66" rx="2" ry="2"/><rect class="c" x="210" y="82" rx="2" ry="2"/><rect class="c" x="210" y="98" rx="2" ry="2"/><rect class="c" x="226" y="2" rx="2" ry="2"/><rect class="c" x="226" y="18" rx="2" ry="2"/><rect class="c" x="226" y="34" rx="2" ry="2"/><rect class="c" x="226" y="50" rx="2" ry="2"/><rect class="c c1" x="226" y="66" rx="2" ry="2"/><rect class="c" x="226" y="82" rx="2" ry="2"/><rect class="c" x="226" y="98" rx="2" ry="2"/><rect class="c" x="242" y="2" rx="2" ry="2"/><rect class="c" x="242" y="18" rx="2" ry="2"/><rect class="c" x="242" y="34" rx="2" ry="2"/><rect class="c" x="242" y="50" rx="2" ry="2"/><rect class="c" x="242" y="66" rx="2" ry="2"/><rect class="c" x="242" y="82" rx="2" ry="2"/><rect class="c" x="242" y="98" rx="2" ry="2"/><rect class="c" x="258" y="2" rx="2" ry="2"/><rect class="c" x="258" y="18" rx="2" ry="2"/><rect class="c" x="258" y="34" rx="2" ry="2"/><rect class="c" x="258" y="50" rx="2" ry="2"/><rect class="c" x="258" y="66" rx="2" ry="2"/><rect class="c" x="258" y="82" rx="2" ry="2"/><rect class="c" x="258" y="98" rx="2" ry="2"/><rect class="c" x="274" y="2" rx="2" ry="2"/><rect class="c" x="274" y="18" rx="2" ry="2"/><rect class="c" x="274" y="34" rx="2" ry="2"/><rect class="c" x="274" y="50" rx="2" ry="2"/><rect class="c" x="274" y="66" rx="2" ry="2"/><rect class="c" x="274" y="82" rx="2" ry="2"/><rect class="c" x="274" y="98" rx="2" ry="2"/><rect class="c" x="290" y="2" rx="2" ry="2"/><rect class="c" x="290" y="18" rx="2" ry="2"/><rect class="c" x="290" y="34" rx="2" ry="2"/><rect class="c" x="290" y="50" rx="2" ry="2"/><rect class="c" x="290" y="66" rx="2" ry="2"/><rect class="c" x="290" y="82" rx="2" ry="2"/><rect class="c" x="290" y="98" rx="2" ry="2"/><rect class="c" x="306" y="2" rx="2" ry="2"/><rect class="c" x="306" y="18" rx="2" ry="2"/><rect class="c" x="306" y="34" rx="2" ry="2"/><rect class="c" x="306" y="50" rx="2" ry="2"/><rect class="c" x="306" y="66" rx="2" ry="2"/><rect class="c" x="306" y="82" rx="2" ry="2"/><rect class="c" x="306" y="98" rx="2" ry="2"/><rect class="c" x="322" y="2" rx="2" ry="2"/><rect class="c" x="322" y="18" rx="2" ry="2"/><rect class="c" x="322" y="34" rx="2" ry="2"/><rect class="c" x="322" y="50" rx="2" ry="2"/><rect class="c" x="322" y="66" rx="2" ry="2"/><rect class="c" x="322" y="82" rx="2" ry="2"/><rect class="c c2" x="322" y="98" rx="2" ry="2"/><rect class="c c3" x="338" y="2" rx="2" ry="2"/><rect class="c" x="338" y="18" rx="2" ry="2"/><rect class="c" x="338" y="34" rx="2" ry="2"/><rect class="c" x="338" y="50" rx="2" ry="2"/><rect class="c" x="338" y="66" rx="2" ry="2"/><rect class="c" x="338" y="82" rx="2" ry="2"/><rect class="c" x="338" y="98" rx="2" ry="2"/><rect class="c" x="354" y="2" rx="2" ry="2"/><rect class="c" x="354" y="18" rx="2" ry="2"/><rect class="c" x="354" y="34" rx="2" ry="2"/><rect class="c" x="354" y="50" rx="2" ry="2"/><rect class="c" x="354" y="66" rx="2" ry="2"/><rect class="c" x="354" y="82" rx="2" ry="2"/><rect class="c" x="354" y="98" rx="2" ry="2"/><rect class="c" x="370" y="2" rx="2" ry="2"/><rect class="c" x="370" y="18" rx="2" ry="2"/><rect class="c" x="370" y="34" rx="2" ry="2"/><rect class="c" x="370" y="50" rx="2" ry="2"/><rect class="c" x="370" y="66" rx="2" ry="2"/><rect class="c" x="370" y="82" rx="2" ry="2"/><rect class="c" x="370" y="98" rx="2" ry="2"/><rect class="c" x="386" y="2" rx="2" ry="2"/><rect class="c" x="386" y="18" rx="2" ry="2"/><rect class="c" x="386" y="34" rx="2" ry="2"/><rect class="c" x="386" y="50" rx="2" ry="2"/><rect class="c c4" x="386" y="66" rx="2" ry="2"/><rect class="c" x="386" y="82" rx="2" ry="2"/><rect class="c" x="386" y="98" rx="2" ry="2"/><rect class="c" x="402" y="2" rx="2" ry="2"/><rect class="c" x="402" y="18" rx="2" ry="2"/><rect class="c" x="402" y="34" rx="2" ry="2"/><rect class="c" x="402" y="50" rx="2" ry="2"/><rect class="c" x="402" y="66" rx="2" ry="2"/><rect class="c" x="402" y="82" rx="2" ry="2"/><rect class="c" x="402" y="98" rx="2" ry="2"/><rect class="c" x="418" y="2" rx="2" ry="2"/><rect class="c" x="418" y="18" rx="2" ry="2"/><rect class="c" x="418" y="34" rx="2" ry="2"/><rect class="c" x="418" y="50" rx="2" ry="2"/><rect class="c" x="418" y="66" rx="2" ry="2"/><rect class="c" x="418" y="82" rx="2" ry="2"/><rect class="c" x="418" y="98" rx="2" ry="2"/><rect class="c" x="434" y="2" rx="2" ry="2"/><rect class="c" x="434" y="18" rx="2" ry="2"/><rect class="c" x="434" y="34" rx="2" ry="2"/><rect class="c" x="434" y="50" rx="2" ry="2"/><rect class="c c5" x="434" y="66" rx="2" ry="2"/><rect class="c" x="434" y="82" rx="2" ry="2"/><rect class="c" x="434" y="98" rx="2" ry="2"/><rect class="c" x="450" y="2" rx="2" ry="2"/><rect class="c" x="450" y="18" rx="2" ry="2"/><rect class="c" x="450" y="34" rx="2" ry="2"/><rect class="c" x="450" y="50" rx="2" ry="2"/><rect class="c" x="450" y="66" rx="2" ry="2"/><rect class="c" x="450" y="82" rx="2" ry="2"/><rect class="c" x="450" y="98" rx="2" ry="2"/><rect class="c" x="466" y="2" rx="2" ry="2"/><rect class="c" x="466" y="18" rx="2" ry="2"/><rect class="c" x="466" y="34" rx="2" ry="2"/><rect class="c" x="466" y="50" rx="2" ry="2"/><rect class="c" x="466" y="66" rx="2" ry="2"/><rect class="c" x="466" y="82" rx="2" ry="2"/><rect class="c" x="466" y="98" rx="2" ry="2"/><rect class="c" x="482" y="2" rx="2" ry="2"/><rect class="c" x="482" y="18" rx="2" ry="2"/><rect class="c" x="482" y="34" rx="2" ry="2"/><rect class="c" x="482" y="50" rx="2" ry="2"/><rect class="c" x="482" y="66" rx="2" ry="2"/><rect class="c" x="482" y="82" rx="2" ry="2"/><rect class="c" x="482" y="98" rx="2" ry="2"/><rect class="c" x="498" y="2" rx="2" ry="2"/><rect class="c c6" x="498" y="18" rx="2" ry="2"/><rect class="c" x="498" y="34" rx="2" ry="2"/><rect class="c" x="498" y="50" rx="2" ry="2"/><rect class="c c7" x="498" y="66" rx="2" ry="2"/><rect class="c" x="498" y="82" rx="2" ry="2"/><rect class="c" x="498" y="98" rx="2" ry="2"/><rect class="c" x="514" y="2" rx="2" ry="2"/><rect class="c" x="514" y="18" rx="2" ry="2"/><rect class="c c8" x="514" y="34" rx="2" ry="2"/><rect class="c" x="514" y="50" rx="2" ry="2"/><rect class="c" x="514" y="66" rx="2" ry="2"/><rect class="c c9" x="514" y="82" rx="2" ry="2"/><rect class="c" x="514" y="98" rx="2" ry="2"/><rect class="c ca" x="530" y="2" rx="2" ry="2"/><rect class="c cb" x="530" y="18" rx="2" ry="2"/><rect class="c cc" x="530" y="34" rx="2" ry="2"/><rect class="c" x="530" y="50" rx="2" ry="2"/><rect class="c" x="530" y="66" rx="2" ry="2"/><rect class="c cd" x="530" y="82" rx="2" ry="2"/><rect class="c ce" x="530" y="98" rx="2" ry="2"/><rect class="c cf" x="546" y="2" rx="2" ry="2"/><rect class="c cg" x="546" y="18" rx="2" ry="2"/><rect class="c ch" x="546" y="34" rx="2" ry="2"/><rect class="c ci" x="546" y="50" rx="2" ry="2"/><rect class="c cj" x="546" y="66" rx="2" ry="2"/><rect class="c ck" x="546" y="82" rx="2" ry="2"/><rect class="c cl" x="546" y="98" rx="2" ry="2"/><rect class="c cm" x="562" y="2" rx="2" ry="2"/><rect class="c cn" x="562" y="18" rx="2" ry="2"/><rect class="c co" x="562" y="34" rx="2" ry="2"/><rect class="c cp" x="562" y="50" rx="2" ry="2"/><rect class="c cq" x="562" y="66" rx="2" ry="2"/><rect class="c cr" x="562" y="82" rx="2" ry="2"/><rect class="c cs" x="562" y="98" rx="2" ry="2"/><rect class="c ct" x="578" y="2" rx="2" ry="2"/><rect class="c" x="578" y="18" rx="2" ry="2"/><rect class="c cu" x="578" y="34" rx="2" ry="2"/><rect class="c cv" x="578" y="50" rx="2" ry="2"/><rect class="c" x="578" y="66" rx="2" ry="2"/><rect class="c" x="578" y="82" rx="2" ry="2"/><rect class="c cw" x="578" y="98" rx="2" ry="2"/><rect class="c" x="594" y="2" rx="2" ry="2"/><rect class="c cx" x="594" y="18" rx="2" ry="2"/><rect class="c" x="594" y="34" rx="2" ry="2"/><rect class="c" x="594" y="50" rx="2" ry="2"/><rect class="c" x="594" y="66" rx="2" ry="2"/><rect class="c" x="594" y="82" rx="2" ry="2"/><rect class="c" x="594" y="98" rx="2" ry="2"/><rect class="c" x="610" y="2" rx="2" ry="2"/><rect class="c" x="610" y="18" rx="2" ry="2"/><rect class="c" x="610" y="34" rx="2" ry="2"/><rect class="c" x="610" y="50" rx="2" ry="2"/><rect class="c" x="610" y="66" rx="2" ry="2"/><rect class="c" x="610" y="82" rx="2" ry="2"/><rect class="c" x="610" y="98" rx="2" ry="2"/><rect class="c cy" x="626" y="2" rx="2" ry="2"/><rect class="c cz" x="626" y="18" rx="2" ry="2"/><rect class="c c10" x="626" y="34" rx="2" ry="2"/><rect class="c" x="626" y="50" rx="2" ry="2"/><rect class="c" x="626" y="66" rx="2" ry="2"/><rect class="c" x="626" y="82" rx="2" ry="2"/><rect class="c c11" x="626" y="98" rx="2" ry="2"/><rect class="c" x="642" y="2" rx="2" ry="2"/><rect class="c" x="642" y="18" rx="2" ry="2"/><rect class="c" x="642" y="34" rx="2" ry="2"/><rect class="c c12" x="642" y="50" rx="2" ry="2"/><rect class="c" x="642" y="66" rx="2" ry="2"/><rect class="c c13" x="642" y="82" rx="2" ry="2"/><rect class="c" x="642" y="98" rx="2" ry="2"/><rect class="c" x="658" y="2" rx="2" ry="2"/><rect class="c" x="658" y="18" rx="2" ry="2"/><rect class="c" x="658" y="34" rx="2" ry="2"/><rect class="c" x="658" y="50" rx="2" ry="2"/><rect class="c" x="658" y="66" rx="2" ry="2"/><rect class="c c14" x="658" y="82" rx="2" ry="2"/><rect class="c c15" x="658" y="98" rx="2" ry="2"/><rect class="c" x="674" y="2" rx="2" ry="2"/><rect class="c" x="674" y="18" rx="2" ry="2"/><rect class="c" x="674" y="34" rx="2" ry="2"/><rect class="c" x="674" y="50" rx="2" ry="2"/><rect class="c c16" x="674" y="66" rx="2" ry="2"/><rect class="c c17" x="674" y="82" rx="2" ry="2"/><rect class="c c18" x="674" y="98" rx="2" ry="2"/><rect class="c c19" x="690" y="2" rx="2" ry="2"/><rect class="c c1a" x="690" y="18" rx="2" ry="2"/><rect class="c" x="690" y="34" rx="2" ry="2"/><rect class="c c1b" x="690" y="50" rx="2" ry="2"/><rect class="c" x="690" y="66" rx="2" ry="2"/><rect class="c" x="690" y="82" rx="2" ry="2"/><rect class="c" x="690" y="98" rx="2" ry="2"/><rect class="c" x="706" y="2" rx="2" ry="2"/><rect class="c" x="706" y="18" rx="2" ry="2"/><rect class="c c1c" x="706" y="34" rx="2" ry="2"/><rect class="c" x="706" y="50" rx="2" ry="2"/><rect class="c" x="706" y="66" rx="2" ry="2"/><rect class="c" x="706" y="82" rx="2" ry="2"/><rect class="c c1d" x="706" y="98" rx="2" ry="2"/><rect class="c c1e" x="722" y="2" rx="2" ry="2"/><rect class="c" x="722" y="18" rx="2" ry="2"/><rect class="c" x="722" y="34" rx="2" ry="2"/><rect class="c" x="722" y="50" rx="2" ry="2"/><rect class="c" x="722" y="66" rx="2" ry="2"/><rect class="c" x="722" y="82" rx="2" ry="2"/><rect class="c" x="722" y="98" rx="2" ry="2"/><rect class="c" x="738" y="2" rx="2" ry="2"/><rect class="c" x="738" y="18" rx="2" ry="2"/><rect class="c" x="738" y="34" rx="2" ry="2"/><rect class="c" x="738" y="50" rx="2" ry="2"/><rect class="c" x="738" y="66" rx="2" ry="2"/><rect class="c" x="738" y="82" rx="2" ry="2"/><rect class="c" x="738" y="98" rx="2" ry="2"/><rect class="c" x="754" y="2" rx="2" ry="2"/><rect class="c c1f" x="754" y="18" rx="2" ry="2"/><rect class="c" x="754" y="34" rx="2" ry="2"/><rect class="c" x="754" y="50" rx="2" ry="2"/><rect class="c" x="754" y="66" rx="2" ry="2"/><rect class="c c1g" x="754" y="82" rx="2" ry="2"/><rect class="c" x="754" y="98" rx="2" ry="2"/><rect class="c c1h" x="770" y="2" rx="2" ry="2"/><rect class="c" x="770" y="18" rx="2" ry="2"/><rect class="c" x="770" y="34" rx="2" ry="2"/><rect class="c" x="770" y="50" rx="2" ry="2"/><rect class="c" x="770" y="66" rx="2" ry="2"/><rect class="c c1i" x="770" y="82" rx="2" ry="2"/><rect class="c" x="770" y="98" rx="2" ry="2"/><rect class="c c1j" x="786" y="2" rx="2" ry="2"/><rect class="c c1k" x="786" y="18" rx="2" ry="2"/><rect class="c" x="786" y="34" rx="2" ry="2"/><rect class="c" x="786" y="50" rx="2" ry="2"/><rect class="c" x="786" y="66" rx="2" ry="2"/><rect class="c" x="786" y="82" rx="2" ry="2"/><rect class="c" x="786" y="98" rx="2" ry="2"/><rect class="c" x="802" y="2" rx="2" ry="2"/><rect class="c" x="802" y="18" rx="2" ry="2"/><rect class="c c1l" x="802" y="34" rx="2" ry="2"/><rect class="c c1m" x="802" y="50" rx="2" ry="2"/><rect class="c" x="802" y="66" rx="2" ry="2"/><rect class="c c1n" x="802" y="82" rx="2" ry="2"/><rect class="c" x="802" y="98" rx="2" ry="2"/><rect class="c c1o" x="818" y="2" rx="2" ry="2"/><rect class="c" x="818" y="18" rx="2" ry="2"/><rect class="c" x="818" y="34" rx="2" ry="2"/><rect class="c c1p" x="818" y="50" rx="2" ry="2"/><rect class="c c1q" x="818" y="66" rx="2" ry="2"/><rect class="c" x="818" y="82" rx="2" ry="2"/><rect class="c" x="818" y="98" rx="2" ry="2"/><rect class="c" x="834" y="2" rx="2" ry="2"/><rect class="c" x="834" y="18" rx="2" ry="2"/><rect class="c" x="834" y="34" rx="2" ry="2"/><rect class="c" x="834" y="50" rx="2" ry="2"/><rect class="c" x="834" y="66" rx="2" ry="2"/><rect class="c" x="834" y="82" rx="2" ry="2"/><rect class="c" x="834" y="98" rx="2" ry="2"/><rect class="u u0" height="12" width="471.7" x="0.0" y="144"/><rect class="u u1" height="12" width="175.6" x="471.1" y="144"/><rect class="u u2" height="12" width="94.8" x="646.1" y="144"/><rect class="u u3" height="12" width="108.3" x="740.3" y="144"/><rect class="s s0" x="0.8" y="0.8" width="14.4" height="14.4" rx="4.5" ry="4.5"/><rect class="s s1" x="1.8" y="1.8" width="12.3" height="12.3" rx="4.1" ry="4.1"/><rect class="s s2" x="2.6" y="2.6" width="10.8" height="10.8" rx="3.6" ry="3.6"/><rect class="s s3" x="3.0" y="3.0" width="9.9" height="9.9" rx="3.3" ry="3.3"/></svg>